<?xml version="1.0" encoding="UTF-8"?>
<svg version="1.1" xmlns="http://www.w3.org/2000/svg" width="360" height="360" viewBox="0 0 360 360">

    <!-- STATIC LOGO ELEMENTS -->
    <!-- Background Circle -->
    <path d="M0 0 C0.8156543 0.19867676 1.63130859 0.39735352 2.47167969 0.60205078 C50.54561967 12.58910903 91.81564049 41.53395033 117.57421875 84.19140625 C127.60026269 101.34177159 134.30748883 119.73520555 139 139 C139.17934082 139.7125293 139.35868164 140.42505859 139.54345703 141.15917969 C144.94218681 163.68694783 144.64725834 192.56318383 139 215 C138.70198486 216.22348145 138.70198486 216.22348145 138.39794922 217.47167969 C126.41089097 265.54561967 97.46604967 306.81564049 54.80859375 332.57421875 C37.65822841 342.60026269 19.26479445 349.30748883 0 354 C-0.7125293 354.17934082 -1.42505859 354.35868164 -2.15917969 354.54345703 C-24.68694783 359.94218681 -53.56318383 359.64725834 -76 354 C-77.22348145 353.70198486 -77.22348145 353.70198486 -78.47167969 353.39794922 C-118.87937094 343.32244159 -154.10267025 321.76537159 -180 289 C-180.721875 288.10667969 -181.44375 287.21335937 -182.1875 286.29296875 C-203.53604765 259.03544808 -217.99285439 222.43487329 -218.203125 187.57421875 C-218.21018463 186.79326843 -218.21724426 186.01231812 -218.22451782 185.20770264 C-218.45165629 152.71358859 -218.45165629 152.71358859 -215 139 C-214.80132324 138.1843457 -214.60264648 137.36869141 -214.39794922 136.52832031 C-202.41089097 88.45438033 -173.46604967 47.18435951 -130.80859375 21.42578125 C-113.65822841 11.39973731 -95.26479445 4.69251117 -76 0 C-74.93120605 -0.26901123 -74.93120605 -0.26901123 -73.84082031 -0.54345703 C-51.31305217 -5.94218681 -22.43681617 -5.64725834 0 0 Z " fill="#010101" transform="translate(218,3)"/>
    <!-- 'b' Logo (white part) -->
    <path d="M0 0 C13.2 0 26.4 0 40 0 C38.7882808 6.66445561 37.55970889 13.25151513 36.0546875 19.84375 C35.69657243 21.43488635 35.3385007 23.02603245 34.98046875 24.6171875 C34.42403183 27.07738059 33.86652595 29.53732669 33.30810547 31.99707031 C32.76260935 34.40369871 32.22096111 36.811169 31.6796875 39.21875 C31.51097137 39.9562146 31.34225525 40.6936792 31.16842651 41.45349121 C30.51378795 44.37090688 30 46.99920123 30 50 C30.42410156 49.61328125 30.84820312 49.2265625 31.28515625 48.828125 C41.98913857 39.32392971 51.74548545 38.12417129 65.68701172 38.78222656 C74.95545262 39.65487268 83.13861679 44.94312675 89 52 C95.04396561 61.77432718 97.37543512 70.80364778 97.3125 82.1875 C97.30831055 83.21327148 97.30412109 84.23904297 97.29980469 85.29589844 C97.19108549 92.58008459 96.46058216 99.10403368 94 106 C93.70996094 106.91394531 93.41992188 107.82789063 93.12109375 108.76953125 C87.82168759 124.62340324 78.77855585 137.73344249 63.85546875 145.66796875 C52.13104065 151.13723001 38.97124792 153.23558543 26.48828125 149.0546875 C20.50257467 146.51757482 15.14243153 142.94487898 10 139 C10.01293091 139.84292603 10.01293091 139.84292603 10.02612305 140.70288086 C9.77940483 143.54327279 9.30252648 145.44579945 8 148 C3.96097042 151.20166035 -0.57023234 153.33547233 -5.1875 155.5625 C-6.47076272 156.20930531 -7.75250433 156.85913722 -9.03271484 157.51196289 C-11.54223675 158.7874265 -14.05856872 160.04729052 -16.58251953 161.29394531 C-20.8199967 163.40935397 -24.97573067 165.65553563 -29.125 167.9375 C-34.75583864 171 -34.75583864 171 -37 171 C-35.60266385 160.87756489 -33.57605976 150.97130285 -31.375 141 C-31.02130925 139.38339245 -30.6680467 137.76669117 -30.31518555 136.14990234 C-29.58170713 132.79065653 -28.84640028 129.43181864 -28.10986328 126.07324219 C-26.49801892 118.71535186 -24.91125958 111.35205081 -23.32284546 103.98907471 C-22.48253859 100.09651885 -21.6394893 96.20455688 -20.796875 92.3125 C-19.75990931 87.52203939 -18.72696587 82.73078718 -17.703125 77.9375 C-14.19047182 61.54363825 -10.37762374 45.21922323 -6.5925293 28.88664246 C-4.36407151 19.26473485 -2.1797448 9.63306575 0 0 Z " fill="#FCFCFC" transform="translate(150,94)"/>
    <!-- 'b' Logo (inner black hole) -->
    <path d="M0 0 C4.30501797 2.53340564 6.89132575 5.82871106 8.625 10.5 C9.84804752 17.90884555 8.38561164 24.5409833 4.11328125 30.66796875 C-0.22468286 36.01974919 -4.14295587 39.03821618 -11.203125 39.80859375 C-17.65434227 40.07604371 -23.15897747 39.57226819 -28.375 35.5 C-30.02685547 33.78979492 -30.02685547 33.78979492 -31.375 31.5 C-31.19133948 27.08941801 -29.9660939 22.84714172 -28.9375 18.5625 C-28.68806641 17.38236328 -28.43863281 16.20222656 -28.18164062 14.98632812 C-25.9394677 5.34662115 -25.9394677 5.34662115 -22.40234375 2.30859375 C-21.40332031 1.71175781 -20.40429688 1.11492187 -19.375 0.5 C-18.69953125 0.07460937 -18.0240625 -0.35078125 -17.328125 -0.7890625 C-11.87667959 -2.77338863 -5.28313612 -2.26994061 0 0 Z " fill="#020202" transform="translate(197.375,169.5)"/>

    <!-- ANIMATED TEXT ELEMENTS -->
    <!-- Group containing all text paths for animation -->
    <g id="circular-text">
        <!-- Animation applied to the group -->
        <animateTransform
            attributeName="transform"
            attributeType="XML"
            type="rotate"
            from="0 180 180"
            to="360 180 180"
            dur="15s"
            repeatCount="indefinite" />

        <!-- All text paths -->
        <path d="M0 0 C3.47844677 2.64361955 4.75052731 4.25158194 6.125 8.375 C6.65577531 12.62120247 6.42053488 14.78393024 4.5 18.625 C1.0951679 22.56743717 -1.4894491 24.04653054 -6.68359375 24.76171875 C-12.04389083 25.06285904 -15.8474973 25.06185146 -20.0625 21.5 C-23.06094452 18.47966903 -24.04997106 16.38115892 -24.1875 12.125 C-24.11247919 7.45870548 -23.12216887 4.87195109 -19.875 1.375 C-13.60048 -2.31589412 -6.62953493 -3.34274018 0 0 Z " fill="#EFEFEF" transform="translate(39.875,176.625)"/>
        <path d="M0 0 C3.24394395 2.09054166 4.93384184 3.41646409 6.8125 6.8125 C7.83431356 12.85996801 6.90990216 17.7384697 4.078125 23.12109375 C1.85820443 26.08783945 -0.09276404 27.61405844 -3.7734375 28.28125 C-12.23523868 28.3760601 -12.23523868 28.3760601 -15.75 25.625 C-19.5405194 21.25132377 -20.39663529 18.59813785 -20.0625 12.875 C-19.33214063 7.16800588 -17.38735825 3.59616885 -12.875 -0.0625 C-8.25878541 -1.9948689 -4.6470785 -1.73126454 0 0 Z " fill="#F0F0F0" transform="translate(232.1875,24.1875)"/>
        <path d="M0 0 C3.97857779 2.2683618 6.5449891 4.63496729 8 9 C8.62693495 16.00479244 8.12918588 21.2189004 3.5 26.8125 C0.17896342 29.44165396 -3.66007954 29.39383867 -7.7109375 29.34765625 C-11.70174842 28.74154333 -13.30051704 26.96284715 -16 24 C-18.55245255 18.75475387 -18.68899209 13.73039763 -18 8 C-14.1666364 0.19636695 -8.28110707 -1.48602688 0 0 Z " fill="#F4F4F4" transform="translate(188,315)"/>
        <path d="M0 0 C5.37143733 2.01102819 9.9276642 4.93452717 14.75 8 C15.62527344 8.5465625 16.50054687 9.093125 17.40234375 9.65625 C18.23378906 10.1821875 19.06523437 10.708125 19.921875 11.25 C20.68081055 11.72953125 21.43974609 12.2090625 22.22167969 12.703125 C24 14 24 14 25 16 C23.70703125 18.49609375 23.70703125 18.49609375 21.8125 21.4375 C21.20019531 22.40558594 20.58789062 23.37367188 19.95703125 24.37109375 C17.43081998 27.76458713 15.67652641 29.69190939 11.44921875 30.46875 C5.72884222 30.53347845 1.80384933 30.21964163 -2.62890625 26.4140625 C-5.76382506 23.18089837 -6.84220994 20.89940335 -7.625 16.4375 C-7.45826428 10.2325494 -3.28382428 5.02626165 0 0 Z " fill="#EFEFEF" transform="translate(301,240)"/>
        <path d="M0 0 C4.79876079 2.3993804 7.6704397 5.16168244 10 10 C10.64585405 14.52097832 10.74327043 18.36976019 8.828125 22.5703125 C6.64124517 25.47680663 4.42342759 26.94594345 1.3125 28.8125 C0.31863281 29.41707031 -0.67523438 30.02164063 -1.69921875 30.64453125 C-2.45847656 31.09183594 -3.21773437 31.53914063 -4 32 C-15.70615034 16.43963554 -15.70615034 16.43963554 -20 8 C-18.37615858 6.85252535 -16.75088944 5.7070709 -15.125 4.5625 C-14.22007813 3.92441406 -13.31515625 3.28632812 -12.3828125 2.62890625 C-8.29749124 -0.16384615 -4.89348183 -0.64820375 0 0 Z " fill="#F1F1F1" transform="translate(97,44)"/>
        <path d="M0 0 C2.5625 1.5625 2.5625 1.5625 4 4 C3.75 7.75 3.75 7.75 3 11 C4.4540625 11.7734375 4.4540625 11.7734375 5.9375 12.5625 C9 15 9 15 10.1875 18.4375 C10 22 10 22 8.25 24.6875 C3.24570131 28.24825099 -2.77467554 31 -9 31 C-10.31536809 27.25099982 -11.62679501 23.50063275 -12.9375 19.75 C-13.31068359 18.68652344 -13.68386719 17.62304688 -14.06835938 16.52734375 C-14.42607422 15.50253906 -14.78378906 14.47773437 -15.15234375 13.421875 C-15.48226318 12.47924805 -15.81218262 11.53662109 -16.15209961 10.56542969 C-16.87207539 8.38705205 -17.48294227 6.23368938 -18 4 C-11.85744007 1.18046429 -6.80560577 -0.93870424 0 0 Z " fill="#EFEFEF" transform="translate(133,25)"/>
        <path d="M0 0 C14.6893039 0.6893039 14.6893039 0.6893039 19 5 C19.47058824 11.23529412 19.47058824 11.23529412 17.5 14.4375 C17.005 14.953125 16.51 15.46875 16 16 C16.515625 16.515625 17.03125 17.03125 17.5625 17.5625 C19 20 19 20 19 23.5625 C18 27 18 27 16.0625 28.9375 C9.90790543 31.0727675 3.29803695 30.32590251 -3 29 C-3.35626519 19.47980248 -3.03569529 9.10708588 0 0 Z " fill="#EFEFEF" transform="translate(188,16)"/>
        <path d="M0 0 C0.83988453 3.91529148 1.67076813 7.83243972 2.5 11.75 C2.73847656 12.86117188 2.97695312 13.97234375 3.22265625 15.1171875 C3.44824219 16.18710937 3.67382812 17.25703125 3.90625 18.359375 C4.22045898 19.83615723 4.22045898 19.83615723 4.54101562 21.34277344 C5 24 5 24 5 28 C-0.64521851 29.64224538 -6.10508208 30.92650969 -12 30 C-14.5625 28.375 -14.5625 28.375 -16 26 C-16.375 22.875 -16.375 22.875 -16 20 C-15.34 19.34 -14.68 18.68 -14 18 C-14.804375 17.525625 -15.60875 17.05125 -16.4375 16.5625 C-19 15 -19 15 -20 14 C-20.47900738 9.84860271 -20.47188874 7.70783312 -18.125 4.1875 C-12.60707395 0.32495176 -6.59365961 -0.04601825 0 0 Z " fill="#F3F3F3" transform="translate(221,310)"/>
        <path d="M0 0 C0.67163086 1.78417969 0.67163086 1.78417969 1 4 C-0.07983398 5.73925781 -0.07983398 5.73925781 -1.74609375 7.453125 C-2.33583984 8.071875 -2.92558594 8.690625 -3.53320312 9.328125 C-4.16162109 9.96234375 -4.79003906 10.5965625 -5.4375 11.25 C-6.06205078 11.8996875 -6.68660156 12.549375 -7.33007812 13.21875 C-8.87592741 14.82360117 -10.43248791 16.41634757 -12 18 C-10.46279297 17.566875 -10.46279297 17.566875 -8.89453125 17.125 C-7.53394621 16.74966619 -6.17326392 16.37468476 -4.8125 16 C-4.13896484 15.80921875 -3.46542969 15.6184375 -2.77148438 15.421875 C0.90555156 14.4174164 4.1850182 13.76295259 8 14 C8.73828125 16.20703125 8.73828125 16.20703125 9 19 C7.48046875 21.32421875 7.48046875 21.32421875 5.1875 23.6875 C4.36765625 24.54472656 3.5478125 25.40195312 2.703125 26.28515625 C1.81109375 27.18105469 0.9190625 28.07695312 0 29 C-0.94286141 29.95688044 -1.88556929 30.91391218 -2.828125 31.87109375 C-5.20353076 34.26346669 -7.59362409 36.63883783 -10 39 C-10.99 38.34 -11.98 37.68 -13 37 C-12.42308522 33.83145253 -11.58353113 32.21773541 -9.27734375 29.984375 C-8.73916016 29.45585937 -8.20097656 28.92734375 -7.64648438 28.3828125 C-7.08251953 27.84398437 -6.51855469 27.30515625 -5.9375 26.75 C-5.36966797 26.19570313 -4.80183594 25.64140625 -4.21679688 25.0703125 C-2.81787531 23.70665786 -1.40980886 22.35239583 0 21 C-1.19238281 21.28875 -2.38476562 21.5775 -3.61328125 21.875 C-5.17964512 22.25017698 -6.74605372 22.62516726 -8.3125 23 C-9.09818359 23.19078125 -9.88386719 23.3815625 -10.69335938 23.578125 C-11.8293457 23.84882813 -11.8293457 23.84882813 -12.98828125 24.125 C-13.68477783 24.29257812 -14.38127441 24.46015625 -15.09887695 24.6328125 C-17 25 -17 25 -20 25 C-20.66 23.35 -21.32 21.7 -22 20 C-17.71 15.71 -13.42 11.42 -9 7 C-13.56980881 7 -17.56814885 8.76876019 -21.87109375 10.22265625 C-24.85857079 10.9648634 -26.19007822 11.09773357 -29 10 C-29.33 8.68 -29.66 7.36 -30 6 C-25.75431174 4.79669806 -21.50287762 3.61511643 -17.25 2.4375 C-15.44015625 1.92413086 -15.44015625 1.92413086 -13.59375 1.40039062 C-12.43359375 1.08134766 -11.2734375 0.76230469 -10.078125 0.43359375 C-9.00981445 0.13509521 -7.94150391 -0.16340332 -6.84082031 -0.47094727 C-4.07873743 -0.98533654 -2.60418934 -0.94772713 0 0 Z " fill="#EEEEEE" transform="translate(60,241)"/>
        <path d="M0 0 C3.83097267 0.60679709 6.84967736 1.74808147 10.30078125 3.50390625 C11.27724609 3.99697266 12.25371094 4.49003906 13.25976562 4.99804688 C14.26716797 5.51431641 15.27457031 6.03058594 16.3125 6.5625 C17.33923828 7.08263672 18.36597656 7.60277344 19.42382812 8.13867188 C21.9520146 9.42040362 24.477224 10.70766061 27 12 C27 13.98 27 15.96 27 18 C19.97195301 18.85373239 13.07721931 19.12109311 6 19 C6 19.66 6 20.32 6 21 C6.68449219 21.09152344 7.36898438 21.18304688 8.07421875 21.27734375 C11.70056363 22.17303641 14.55047308 23.75026282 17.8125 25.5625 C18.40998047 25.89185547 19.00746094 26.22121094 19.62304688 26.56054688 C21.08533998 27.36773267 22.5431399 28.18304917 24 29 C23.67 30.98 23.34 32.96 23 35 C8.645 35.99 8.645 35.99 -6 37 C-6 35.02 -6 33.04 -6 31 C-4.86820313 30.93941406 -3.73640625 30.87882812 -2.5703125 30.81640625 C-1.08852855 30.73200083 0.3932416 30.64735283 1.875 30.5625 C2.62136719 30.52318359 3.36773437 30.48386719 4.13671875 30.44335938 C8.19986864 30.28426376 8.19986864 30.28426376 12 29 C7.05 26.36 2.1 23.72 -3 21 C-3 16 -3 16 -2 15 C0.26712807 14.78883154 2.53933594 14.63109906 4.8125 14.5 C8.75422388 14.27125747 12.15899484 13.96025129 16 13 C10.72 10.36 5.44 7.72 0 5 C0 3.35 0 1.7 0 0 Z " fill="#EFEFEF" transform="translate(22,131)"/>
        <path d="M0 0 C0 1.65 0 3.3 0 5 C-2.60060504 6.34070318 -5.20504916 7.67273354 -7.8125 9 C-8.55048828 9.3815625 -9.28847656 9.763125 -10.04882812 10.15625 C-10.76103516 10.5171875 -11.47324219 10.878125 -12.20703125 11.25 C-12.8616333 11.58515625 -13.51623535 11.9203125 -14.19067383 12.265625 C-16 13 -16 13 -19 13 C-19 13.66 -19 14.32 -19 15 C-11.74 15 -4.48 15 3 15 C3.33 16.98 3.66 18.96 4 21 C-5.405 25.455 -5.405 25.455 -15 30 C-8.07 30.33 -1.14 30.66 6 31 C6.495 33.97 6.495 33.97 7 37 C-2.9 36.34 -12.8 35.68 -23 35 C-23 33.02 -23 31.04 -23 29 C-20.54429825 27.66161267 -18.08570084 26.32913768 -15.625 25 C-14.92632812 24.6184375 -14.22765625 24.236875 -13.5078125 23.84375 C-8.2265625 21 -8.2265625 21 -6 21 C-6 20.34 -6 19.68 -6 19 C-6.56509277 19.01047363 -7.13018555 19.02094727 -7.71240234 19.03173828 C-10.26655653 19.07324788 -12.82063982 19.0993096 -15.375 19.125 C-16.26445312 19.14175781 -17.15390625 19.15851563 -18.0703125 19.17578125 C-18.92109375 19.18222656 -19.771875 19.18867188 -20.6484375 19.1953125 C-21.82672119 19.21102295 -21.82672119 19.21102295 -23.02880859 19.22705078 C-25 19 -25 19 -27 17 C-26.93896484 14.56958008 -26.93896484 14.56958008 -26 12 C-23.82275391 10.33081055 -23.82275391 10.33081055 -20.9765625 8.88671875 C-19.44515625 8.0987793 -19.44515625 8.0987793 -17.8828125 7.29492188 C-16.80773437 6.76447266 -15.73265625 6.23402344 -14.625 5.6875 C-13.55765625 5.13771484 -12.4903125 4.58792969 -11.390625 4.02148438 C-3.45756017 0 -3.45756017 0 0 0 Z " fill="#F1F1F1" transform="translate(337,128)"/>
        <path d="M0 0 C9.44363607 0.54537716 18.65438032 1.53708385 28 3 C28.1875 5.875 28.1875 5.875 28 9 C24.46617181 11.35588546 21.0074602 12.11608131 16.9375 13.0625 C11.83876814 14.15015368 11.83876814 14.15015368 7 16 C12.94 19.3 18.88 22.6 25 26 C25 28.31 25 30.62 25 33 C21.08288672 32.69294194 17.16640839 32.37841166 13.25 32.0625 C12.13882812 31.97548828 11.02765625 31.88847656 9.8828125 31.79882812 C8.81289063 31.71181641 7.74296875 31.62480469 6.640625 31.53515625 C5.65610352 31.456604 4.67158203 31.37805176 3.65722656 31.29711914 C1.3466506 31.03876091 -0.76737883 30.6322672 -3 30 C-3 28.35 -3 26.7 -3 25 C2.61 25.33 8.22 25.66 14 26 C8.72 23.03 3.44 20.06 -2 17 C-1.67 15.35 -1.34 13.7 -1 12 C3.95 10.68 8.9 9.36 14 8 C9.13482528 6.60995008 4.94441643 5.60543875 0 5 C0 3.35 0 1.7 0 0 Z " fill="#F3F3F3" transform="translate(316,181)"/>
        <path d="M0 0 C3.38031589 1.18767855 3.93216817 1.89825225 6 5 C6 6.98 6 8.96 6 11 C10.29 11 14.58 11 19 11 C18.34 12.65 17.68 14.3 17 16 C12.71 16 8.42 16 4 16 C3.34 17.32 2.68 18.64 2 20 C4.31 21.65 6.62 23.3 9 25 C8.01 27.475 8.01 27.475 7 30 C1.09274003 26.27889136 -4.78708163 22.51644646 -10.625 18.6875 C-11.62789062 18.03136719 -12.63078125 17.37523438 -13.6640625 16.69921875 C-16 15 -16 15 -17 13 C-15.89966185 11.39320484 -14.79457336 9.78966207 -13.6875 8.1875 C-13.07261719 7.29417969 -12.45773438 6.40085937 -11.82421875 5.48046875 C-8.08386218 0.39454494 -6.54990425 -0.574553 0 0 Z " fill="#F1F1F1" transform="translate(55,84)"/>
        <path d="M0 0 C2.475 0.495 2.475 0.495 5 1 C5.33 8.59 5.66 16.18 6 24 C9.3 19.38 12.6 14.76 16 10 C17.32 10.66 18.64 11.32 20 12 C19.37928294 15.38062314 18.12870126 17.50742947 16.09375 20.2578125 C15.22556641 21.44310547 15.22556641 21.44310547 14.33984375 22.65234375 C13.73269531 23.46832031 13.12554687 24.28429687 12.5 25.125 C11.30093433 26.75175788 10.10296309 28.37932319 8.90625 30.0078125 C8.37322266 30.72598145 7.84019531 31.44415039 7.29101562 32.18408203 C5.95012825 33.9715994 5.95012825 33.9715994 5 36 C1.125 35.125 1.125 35.125 0 34 C-0.15714654 32.36743242 -0.25085414 30.72864662 -0.31640625 29.08984375 C-0.35830078 28.10048828 -0.40019531 27.11113281 -0.44335938 26.09179688 C-0.48267578 25.05087891 -0.52199219 24.00996094 -0.5625 22.9375 C-0.60568359 21.89271484 -0.64886719 20.84792969 -0.69335938 19.77148438 C-0.79981105 17.18116028 -0.90044308 14.59059825 -1 12 C-3.97 16.29 -6.94 20.58 -10 25 C-11.32 24.67 -12.64 24.34 -14 24 C-14 19.79766719 -13.77116408 19.18658696 -11.4453125 15.99609375 C-10.91292969 15.25552734 -10.38054687 14.51496094 -9.83203125 13.75195312 C-9.26871094 12.98818359 -8.70539063 12.22441406 -8.125 11.4375 C-7.02337149 9.91541235 -5.92180646 8.39327877 -4.8203125 6.87109375 C-4.08192139 5.86453735 -4.08192139 5.86453735 -3.32861328 4.83764648 C-2.18177035 3.25141225 -1.08576634 1.62864951 0 0 Z " fill="#EFEFEF" transform="translate(91,284)"/>
        <path d="M0 0 C2.00998059 3.76559528 4.00624763 7.53829084 6 11.3125 C6.57234375 12.38435547 7.1446875 13.45621094 7.734375 14.56054688 C8.27578125 15.58857422 8.8171875 16.61660156 9.375 17.67578125 C10.12910156 19.0975769 10.12910156 19.0975769 10.8984375 20.5480957 C12 23 12 23 12 26 C7.94700418 27.15665542 6.03041718 26.93512783 2.35546875 24.91015625 C1.51435547 24.45576172 0.67324219 24.00136719 -0.19335938 23.53320312 C-1.05767578 23.04787109 -1.92199219 22.56253906 -2.8125 22.0625 C-3.69615234 21.58103516 -4.57980469 21.09957031 -5.49023438 20.60351562 C-7.66745571 19.41487046 -9.83658188 18.21353194 -12 17 C-11.41089844 18.04800781 -10.82179687 19.09601563 -10.21484375 20.17578125 C-9.45519913 21.55439557 -8.69611344 22.93331798 -7.9375 24.3125 C-7.54755859 25.00279297 -7.15761719 25.69308594 -6.75585938 26.40429688 C-5.75962517 28.22925688 -4.87247158 30.11273877 -4 32 C-4.33 32.99 -4.66 33.98 -5 35 C-7.0625 35.6875 -7.0625 35.6875 -9 36 C-10.9827851 32.23105858 -12.96060441 28.45953347 -14.9375 24.6875 C-15.50146484 23.61564453 -16.06542969 22.54378906 -16.64648438 21.43945312 C-17.18466797 20.41142578 -17.72285156 19.38339844 -18.27734375 18.32421875 C-18.77484131 17.37635498 -19.27233887 16.42849121 -19.78491211 15.4519043 C-21 13 -21 13 -22 10 C-18.11609227 8.84988159 -15.78010758 8.82480123 -12.23828125 10.65234375 C-10.92032008 11.39773721 -9.61177433 12.15999162 -8.3125 12.9375 C-3.4842089 15.97714582 -3.4842089 15.97714582 2 17 C1.4946875 16.09636719 0.989375 15.19273437 0.46875 14.26171875 C-0.1878303 13.07049449 -0.84406218 11.87907815 -1.5 10.6875 C-1.83386719 10.09259766 -2.16773438 9.49769531 -2.51171875 8.88476562 C-4.06825114 6.04171156 -5 4.29339012 -5 1 C-3 0 -3 0 0 0 Z " fill="#EFEFEF" transform="translate(255,294)"/>
        <path d="M0 0 C5.53026034 3.33902511 5.53026034 3.33902511 6.59765625 7.11328125 C6.875 9.3125 6.875 9.3125 7 13 C10.3 12.34 13.6 11.68 17 11 C17.33 12.65 17.66 14.3 18 16 C14.64808052 16.98697159 11.29310737 17.96314756 7.9375 18.9375 C6.52307617 19.35418945 6.52307617 19.35418945 5.08007812 19.77929688 C0.05044698 21.23385919 -4.79290445 22.42945832 -10 23 C-13.8387553 11.00660066 -13.8387553 11.00660066 -12 5 C-8.41589774 0.60658433 -5.66749128 -0.6539413 0 0 Z " fill="#F0F0F0" transform="translate(33,206)"/>
        <path d="M0 0 C0.66 0 1.32 0 2 0 C3.34377938 2.7235907 4.10970352 4.36543411 3.58447266 7.40356445 C3.2807373 8.215271 2.97700195 9.02697754 2.6640625 9.86328125 C2.34179688 10.74951172 2.01953125 11.63574219 1.6875 12.54882812 C1.1615625 13.9168457 1.1615625 13.9168457 0.625 15.3125 C0.28210938 16.24384766 -0.06078125 17.17519531 -0.4140625 18.13476562 C-1.2612299 20.42917733 -2.12348243 22.71667489 -3 25 C-2.01257813 24.278125 -1.02515625 23.55625 -0.0078125 22.8125 C1.28627903 21.87475251 2.58055969 20.93726598 3.875 20 C4.52597656 19.52304688 5.17695313 19.04609375 5.84765625 18.5546875 C10.7734375 15 10.7734375 15 13 15 C13.66 16.65 14.32 18.3 15 20 C11.93913885 22.10655835 8.87602503 24.20981798 5.8125 26.3125 C4.94818359 26.90740234 4.08386719 27.50230469 3.19335938 28.11523438 C2.35224609 28.69208984 1.51113281 29.26894531 0.64453125 29.86328125 C-0.12528076 30.39219971 -0.89509277 30.92111816 -1.68823242 31.46606445 C-4.083272 33.05525378 -6.52482669 34.53939889 -9 36 C-11 33 -11 33 -10.86328125 31.01953125 C-8.9981722 23.54586733 -6.48965742 16.8723894 -3 10 C-4.44632812 11.10021484 -4.44632812 11.10021484 -5.921875 12.22265625 C-7.19742191 13.16993741 -8.47349103 14.11651567 -9.75 15.0625 C-10.70132812 15.79049805 -10.70132812 15.79049805 -11.671875 16.53320312 C-12.6 17.21479492 -12.6 17.21479492 -13.546875 17.91015625 C-14.39523926 18.54642944 -14.39523926 18.54642944 -15.26074219 19.19555664 C-17.52945484 20.24488401 -18.69450903 19.81487181 -21 19 C-21 17.68 -21 16.36 -21 15 C-19.28759766 13.38427734 -19.28759766 13.38427734 -16.9140625 11.8359375 C-16.06585938 11.27132812 -15.21765625 10.70671875 -14.34375 10.125 C-13.4465625 9.5475 -12.549375 8.97 -11.625 8.375 C-9.86614698 7.21772569 -8.10828699 6.05894034 -6.3515625 4.8984375 C-5.56604004 4.38974121 -4.78051758 3.88104492 -3.97119141 3.35693359 C-1.89373093 2.0147311 -1.89373093 2.0147311 0 0 Z " fill="#F1F1F1" transform="translate(305,75)"/>
        <path d="M0 0 C5.65283439 4.13029447 11.09003334 8.48732757 16.484375 12.94921875 C18.62006949 14.69027404 20.78124941 16.36704104 23 18 C22.67 20.31 22.34 22.62 22 25 C11.77 25 1.54 25 -9 25 C-8.67 23.35 -8.34 21.7 -8 20 C-5.03 20 -2.06 20 1 20 C1.12375 19.29875 1.2475 18.5975 1.375 17.875 C2.03838345 14.82343613 2.97211955 11.94659062 4 9 C3.38125 8.690625 2.7625 8.38125 2.125 8.0625 C0.75 7.375 -0.625 6.6875 -2 6 C-1.34 4.02 -0.68 2.04 0 0 Z " fill="#F4F4F4" transform="translate(312,212)"/>
        <path d="M0 0 C1.73828125 2.80078125 1.73828125 2.80078125 3.3125 6.3125 C4.11107422 8.03919922 4.11107422 8.03919922 4.92578125 9.80078125 C5.96535001 12.89680602 6.2423242 14.05765322 5 17 C4.01 17 3.02 17 2 17 C0.35 13.7 -1.3 10.4 -3 7 C-5.62113708 7 -7.50935112 7.31292445 -10 8 C-9.62746094 8.68707031 -9.25492187 9.37414062 -8.87109375 10.08203125 C-8.39800781 10.98308594 -7.92492187 11.88414063 -7.4375 12.8125 C-6.96183594 13.70582031 -6.48617188 14.59914063 -5.99609375 15.51953125 C-5 18 -5 18 -6 21 C-6.99 21.33 -7.98 21.66 -9 22 C-10.98 18.37 -12.96 14.74 -15 11 C-16.98 11.66 -18.96 12.32 -21 13 C-20.44119141 14.13888672 -20.44119141 14.13888672 -19.87109375 15.30078125 C-19.39800781 16.29464844 -18.92492187 17.28851563 -18.4375 18.3125 C-17.96183594 19.29863281 -17.48617188 20.28476563 -16.99609375 21.30078125 C-16 24 -16 24 -17 27 C-17.99 27 -18.98 27 -20 27 C-21.17407021 24.73272667 -22.33939739 22.46165376 -23.5 20.1875 C-23.83386719 19.54490234 -24.16773438 18.90230469 -24.51171875 18.24023438 C-26.00239084 15.30452301 -27 13.33873483 -27 10 C-23.25933545 8.12654604 -19.50615406 6.27967592 -15.75 4.4375 C-14.68652344 3.90447266 -13.62304688 3.37144531 -12.52734375 2.82226562 C-11.50253906 2.32275391 -10.47773438 1.82324219 -9.421875 1.30859375 C-8.47924805 0.84251709 -7.53662109 0.37644043 -6.56542969 -0.10375977 C-3.78428771 -1.07535971 -2.65538053 -1.22933605 0 0 Z " fill="#EDEDED" transform="translate(326,104)"/>
        <path d="M0 0 C0.99 0.66 1.98 1.32 3 2 C1.63629701 4.99220268 0.05091917 7.29026529 -2.125 9.75 C-2.93324219 10.67039062 -2.93324219 10.67039062 -3.7578125 11.609375 C-4.37269531 12.29773438 -4.37269531 12.29773438 -5 13 C-2.525 14.98 -2.525 14.98 0 17 C2.64 14.36 5.28 11.72 8 9 C8.99 9.66 9.98 10.32 11 11 C9.44499019 14.81684226 6.96404505 17.19195732 4 20 C4.66 21.32 5.32 22.64 6 24 C9.88670845 24.42486766 9.88670845 24.42486766 11.8515625 22.46875 C12.43679687 21.8190625 13.02203125 21.169375 13.625 20.5 C14.7149779 19.30054834 15.83405104 18.12574382 17 17 C17.66 17 18.32 17 19 17 C19 17.66 19 18.32 19 19 C19.66 19 20.32 19 21 19 C19.41332422 22.90285767 16.86649519 25.33520982 13.875 28.25 C12.96492188 29.14203125 12.05484375 30.0340625 11.1171875 30.953125 C10.41851562 31.62859375 9.71984375 32.3040625 9 33 C5.98346097 31.63903054 3.79694048 30.08428716 1.3984375 27.8125 C0.41617188 26.88824219 0.41617188 26.88824219 -0.5859375 25.9453125 C-1.25882813 25.30335937 -1.93171875 24.66140625 -2.625 24 C-3.305625 23.35804687 -3.98625 22.71609375 -4.6875 22.0546875 C-7.15103312 19.72747637 -9.60358594 17.39641406 -12 15 C-11.94177239 11.24015986 -9.56783026 9.25384707 -7.00195312 6.73828125 C-6.48568359 6.24714844 -5.96941406 5.75601563 -5.4375 5.25 C-4.91736328 4.74339844 -4.39722656 4.23679687 -3.86132812 3.71484375 C-2.58089916 2.46965595 -1.29132446 1.23388498 0 0 Z " fill="#EDEDED" transform="translate(69,59)"/>
        <path d="M0 0 C4.10252002 2.11341941 6.93266635 4.81557953 10.08984375 8.09765625 C12.70231663 10.69944417 15.5334156 13.00675895 18.3984375 15.32421875 C20.31144826 17.32588123 21.041333 18.20485579 21 21 C18.9453125 23.5078125 18.9453125 23.5078125 16.125 26.125 C12.60763913 29.21842731 12.60763913 29.21842731 10 33 C8.68 32.34 7.36 31.68 6 31 C7.66751148 27.05860922 10.22710649 24.2107188 13 21 C11.63016497 17.83884224 11.0109362 17.0072908 8 15 C7.690625 15.8353125 7.690625 15.8353125 7.375 16.6875 C5.44999226 19.92501302 2.96149098 21.68231141 0 24 C-0.66 22.68 -1.32 21.36 -2 20 C0.97 16.535 0.97 16.535 4 13 C3.34 11.68 2.68 10.36 2 9 C-1.88595704 8.55427485 -1.88595704 8.55427485 -3.703125 10.53125 C-4.21359375 11.1809375 -4.7240625 11.830625 -5.25 12.5 C-5.77078125 13.1496875 -6.2915625 13.799375 -6.828125 14.46875 C-7.21484375 14.9740625 -7.6015625 15.479375 -8 16 C-9.32 15.34 -10.64 14.68 -12 14 C-8.72905967 8.54843278 -4.58146674 4.38130557 0 0 Z " fill="#EDEDED" transform="translate(286,264)"/>
        <path d="M0 0 C3.31642418 1.45326453 5.60832566 3.28171542 8.1875 5.8125 C8.88230469 6.47894531 9.57710937 7.14539063 10.29296875 7.83203125 C12.32391115 10.41137457 13.10532008 11.69495551 13 15 C11.20680438 17.08182642 9.59476117 18.65175214 7.5 20.375 C6.3868056 21.33583344 5.27482233 22.29807188 4.1640625 23.26171875 C3.62040039 23.72626465 3.07673828 24.19081055 2.51660156 24.66943359 C-0.04235855 26.9144968 -2.3638294 29.37899292 -4.6953125 31.85546875 C-6 33 -6 33 -8 33 C-9.55078125 31.4609375 -9.55078125 31.4609375 -11.3125 29.375 C-11.92867187 28.65054687 -12.54484375 27.92609375 -13.1796875 27.1796875 C-13.78039063 26.46039063 -14.38109375 25.74109375 -15 25 C-15.51820312 24.38382812 -16.03640625 23.76765625 -16.5703125 23.1328125 C-17.71958835 21.76024877 -18.8607561 20.3809017 -20 19 C-18.68 18.34 -17.36 17.68 -16 17 C-13.36 19.64 -10.72 22.28 -8 25 C-6.35 23.35 -4.7 21.7 -3 20 C-5.31 17.69 -7.62 15.38 -10 13 C-9.34 11.68 -8.68 10.36 -8 9 C-3.7257442 10.5830577 -1.73468206 13.50568404 1 17 C2.65 15.35 4.3 13.7 6 12 C3.36 9.03 0.72 6.06 -2 3 C-1.34 2.01 -0.68 1.02 0 0 Z " fill="#EEEEEE" transform="translate(75,267)"/>
        <path d="M0 0 C1.32 0.33 2.64 0.66 4 1 C3.54554036 2.41791408 3.08625056 3.83428046 2.625 5.25 C2.36976562 6.03890625 2.11453125 6.8278125 1.8515625 7.640625 C1.04826333 9.86627958 0.10288338 11.90931672 -1 14 C-0.236875 14.144375 0.52625 14.28875 1.3125 14.4375 C4 15 4 15 7 16 C7.1546875 14.948125 7.1546875 14.948125 7.3125 13.875 C8.09359003 10.60862353 9.42058743 7.9528148 11 5 C12.32 5.33 13.64 5.66 15 6 C14.27991594 10.60853797 12.68704061 14.67237409 11 19 C13.31 19.66 15.62 20.32 18 21 C18.12246094 20.42765625 18.24492188 19.8553125 18.37109375 19.265625 C19.02762868 16.90046809 19.93723512 14.92793203 21.0625 12.75 C21.42472656 12.04359375 21.78695312 11.3371875 22.16015625 10.609375 C22.43730469 10.07828125 22.71445312 9.5471875 23 9 C23.99 9.33 24.98 9.66 26 10 C25.41347648 14.48993869 24.2356462 18.22543184 22.4375 22.375 C21.98246094 23.43460938 21.52742188 24.49421875 21.05859375 25.5859375 C20.70925781 26.38257813 20.35992187 27.17921875 20 28 C13.60703339 26.00667932 7.52953606 23.58525386 1.4375 20.8125 C0.21063477 20.26045898 0.21063477 20.26045898 -1.04101562 19.69726562 C-3.02909218 18.80204987 -5.01480308 17.9015835 -7 17 C-5.08390483 11.0191669 -2.93174252 5.56020134 0 0 Z " fill="#EFEFEF" transform="translate(33,107)"/>
        <path d="M0 0 C4.55532787 1.4340847 4.55532787 1.4340847 6.375 4.0625 C7.61714965 7.78894896 7.8945954 11.19189082 7.375 15.0625 C5.875 18.0625 5.875 18.0625 3.375 20.0625 C0.54560142 20.76984965 -1.79485817 20.76423599 -4.625 20.0625 C-7.38238576 17.92552603 -8.37350804 16.36546785 -9.03515625 12.9375 C-9.30350884 8.86404532 -8.94381677 5.82023144 -6.5625 2.4375 C-3.625 0.0625 -3.625 0.0625 0 0 Z " fill="#060606" transform="translate(183.625,318.9375)"/>
        <path d="M0 0 C2.77025463 1.38512731 3.88240065 2.56476075 6 5 C6.625 8.0625 6.625 8.0625 6 11 C3.69348553 13.84470117 1.7306736 15.79259118 -1.98828125 16.23828125 C-5.97179518 16.3654859 -8.45380135 16.27867278 -12.0625 14.4375 C-14 12 -14 12 -14.6875 8.5625 C-13.95614972 4.77277582 -13.01052669 3.13483145 -9.84375 0.88671875 C-6.5037498 -0.71959491 -3.58313234 -0.88156431 0 0 Z " fill="#070707" transform="translate(35,180)"/>
        <path d="M0 0 C3.4375 0.625 3.4375 0.625 5.875 2.1875 C8.0441137 5.57131737 7.91548526 7.66455072 7.4375 11.625 C4.57125796 18.72236124 4.57125796 18.72236124 1.4375 20.625 C-4.50219144 20.41286816 -4.50219144 20.41286816 -7.25 18.37109375 C-9.44242742 15.45438228 -9.09162778 12.67746851 -8.97265625 9.14453125 C-8.09153543 3.73193193 -5.53674225 0.97135829 0 0 Z " fill="#040404" transform="translate(226.5625,27.375)"/>
        <path d="M0 0 C-0.61379513 3.89442426 -1.85556011 6.95968022 -3.5625 10.5 C-6.41485246 17.08991776 -6.51400374 22.91817063 -6 30 C-7.65 30.33 -9.3 30.66 -11 31 C-11.01675781 30.35675781 -11.03351563 29.71351562 -11.05078125 29.05078125 C-11.87849832 20.39063701 -15.88105419 15.87669373 -21.56640625 9.75 C-24 7 -24 7 -25 4 C-24 3 -24 3 -21.66796875 2.62890625 C-19 3 -19 3 -17.05078125 5.15234375 C-16.47714844 6.07144531 -15.90351563 6.99054687 -15.3125 7.9375 C-13.22179277 11.58326346 -13.22179277 11.58326346 -10 14 C-9.896875 13.154375 -9.79375 12.30875 -9.6875 11.4375 C-8.90788905 7.53944527 -7.74802363 4.56596821 -6 1 C-4 0 -4 0 0 0 Z " fill="#EDEDED" transform="translate(168,16)"/>
        <path d="M0 0 C2.475 0.495 2.475 0.495 5 1 C3.92348619 7.52990613 2.23284624 13.49332796 -0.1953125 19.65234375 C-1.16212192 22.05936416 -1.16212192 22.05936416 -1 25 C1.31 25.66 3.62 26.32 6 27 C5.67 28.32 5.34 29.64 5 31 C-2.60913098 29.7205886 -9.73225897 27.57243067 -17 25 C-16.67 23.35 -16.34 21.7 -16 20 C-13.03 20.99 -10.06 21.98 -7 23 C-6.773125 21.80375 -6.54625 20.6075 -6.3125 19.375 C-4.85180653 12.7112524 -2.37759517 6.37957787 0 0 Z " fill="#EDEDED" transform="translate(133,307)"/>
        <path d="M0 0 C3.96747902 1.73393527 7.27514474 4.31871573 10.6875 6.9375 C11.28111328 7.38029297 11.87472656 7.82308594 12.48632812 8.27929688 C16.88041693 11.6412508 16.88041693 11.6412508 18 15 C17.67 15.66 17.34 16.32 17 17 C13.54074837 15.7508258 10.85306797 14.32472205 8 12 C7.72365723 12.5887793 7.44731445 13.17755859 7.16259766 13.78417969 C6.05942157 15.88674713 4.8740704 17.60000462 3.3984375 19.453125 C2.90859375 20.071875 2.41875 20.690625 1.9140625 21.328125 C1.40617187 21.96234375 0.89828125 22.5965625 0.375 23.25 C-0.140625 23.8996875 -0.65625 24.549375 -1.1875 25.21875 C-2.45514179 26.81503967 -3.72714361 28.40786526 -5 30 C-6.9375 29.625 -6.9375 29.625 -9 29 C-9.33 28.34 -9.66 27.68 -10 27 C-8.41727985 24.93702698 -6.83384324 22.87461051 -5.25 20.8125 C-4.8065625 20.23435547 -4.363125 19.65621094 -3.90625 19.06054688 C-1.30669974 15.67730867 1.32229468 12.32210637 4 9 C2.02 7.35 0.04 5.7 -2 4 C-1.34 2.68 -0.68 1.36 0 0 Z " fill="#EFEFEF" transform="translate(271,44)"/>
        <path d="M0 0 C3.87164046 1.42974657 7.29494588 3.21832023 10.8125 5.375 C12.27623047 6.25285156 12.27623047 6.25285156 13.76953125 7.1484375 C14.50558594 7.75945312 15.24164063 8.37046875 16 9 C16 13 16 13 14.5 15.75 C12 18 12 18 8.1875 18.6875 C3.93389602 18.40020217 1.31266893 16.70821148 -1.7109375 13.78125 C-3 12 -3 12 -3.625 8.4375 C-2.9910219 4.95062042 -2.07068712 2.84719479 0 0 Z " fill="#050505" transform="translate(302,247)"/>
        <path d="M0 0 C3.29208237 2.38242803 5.4756764 5.13495633 6.58203125 9.0703125 C6.82152006 11.99987323 6.57202428 14.28236953 4.7109375 16.6171875 C0.83121469 20 0.83121469 20 -2 20 C-3.80211266 17.76360773 -5.47564497 15.53217136 -7.125 13.1875 C-7.82689453 12.22360352 -7.82689453 12.22360352 -8.54296875 11.24023438 C-12 6.37720937 -12 6.37720937 -12 3 C-8.13404153 -0.16305693 -4.89519423 -0.85880601 0 0 Z " fill="#050505" transform="translate(96,49)"/>
        <path d="M0 0 C1.32 0.66 2.64 1.32 4 2 C3.36355878 4.99156701 2.38047987 7.41938953 0.93359375 10.109375 C0.53076172 10.86347656 0.12792969 11.61757813 -0.28710938 12.39453125 C-0.91842773 13.56048828 -0.91842773 13.56048828 -1.5625 14.75 C-1.98724609 15.54277344 -2.41199219 16.33554687 -2.84960938 17.15234375 C-3.89582417 19.10371067 -4.94605953 21.05279814 -6 23 C-4.70903219 23.81360995 -3.41720125 24.62585046 -2.125 25.4375 C-1.04605469 26.11619141 -1.04605469 26.11619141 0.0546875 26.80859375 C1.9777547 28.02461501 1.9777547 28.02461501 4 29 C3.67 30.32 3.34 31.64 3 33 C-1.14298667 32.40165275 -4.18194377 30.99335715 -7.8125 28.9375 C-8.78832031 28.38964844 -9.76414063 27.84179688 -10.76953125 27.27734375 C-11.50558594 26.85582031 -12.24164063 26.43429688 -13 26 C-12.41358429 22.27112493 -11.3667105 19.4622737 -9.53125 16.171875 C-9.04269531 15.29015625 -8.55414063 14.4084375 -8.05078125 13.5 C-7.53902344 12.5925 -7.02726563 11.685 -6.5 10.75 C-5.98824219 9.82703125 -5.47648438 8.9040625 -4.94921875 7.953125 C-1.16689161 1.16689161 -1.16689161 1.16689161 0 0 Z " fill="#F1F1F1" transform="translate(250,32)"/>
        <path d="M0 0 C6.02900687 0.51241107 12.02004643 1.069785 18 2 C17.37514309 11.78224261 15.68656475 21.35794117 14 31 C12.35 31 10.7 31 9 31 C9.5767137 22.57694468 10.64134617 14.33307682 12 6 C6.06 5.01 6.06 5.01 0 4 C0 2.68 0 1.36 0 0 Z " fill="#F1F1F1" transform="translate(148,312)"/>
        <path d="M0 0 C4.42393733 4.12791178 7.88374151 8.69517475 11.375 13.625 C11.93316406 14.388125 12.49132812 15.15125 13.06640625 15.9375 C13.58847656 16.67226563 14.11054688 17.40703125 14.6484375 18.1640625 C15.12458496 18.82873535 15.60073242 19.4934082 16.09130859 20.17822266 C17 22 17 22 16 25 C15.01 25.33 14.02 25.66 13 26 C8.73781018 20.47431518 8.73781018 20.47431518 7.00073242 18.20336914 C5.01620175 15.60924602 3.02512418 13.03091093 0.96484375 10.49609375 C0.41957031 9.81675781 -0.12570312 9.13742187 -0.6875 8.4375 C-1.16574219 7.85871094 -1.64398438 7.27992188 -2.13671875 6.68359375 C-3 5 -3 5 -2.76953125 2.84765625 C-2 1 -2 1 0 0 Z " fill="#F0F0F0" transform="translate(262,287)"/>
        <path d="M0 0 C3.321574 1.3286296 4.07255737 2.76947194 5.5 6 C5.5 7.32 5.5 8.64 5.5 10 C2.2 10.66 -1.1 11.32 -4.5 12 C-5.57421875 5.26171875 -5.57421875 5.26171875 -5.5 3 C-3.67560178 0.5297971 -3.12635202 0 0 0 Z " fill="#0D0D0D" transform="translate(30.5,211)"/>
        <path d="M0 0 C2.3125 0.8125 2.3125 0.8125 3.3125 1.8125 C2.93306512 5.91039669 2.61944043 8.35208935 0.3125 11.8125 C-2.6594385 10.68798273 -5.02190687 9.58956209 -7.6875 7.8125 C-7.29844382 5.08910672 -6.62012433 3.72346786 -4.9375 1.5 C-2.6875 -0.1875 -2.6875 -0.1875 0 0 Z " fill="#090909" transform="translate(52.6875,89.1875)"/>
        <path d="M0 0 C0.38063221 2.3260857 0.71269945 4.66055264 1 7 C-0.58894072 8.58894072 -2.24801424 8.16998411 -4.4375 8.1875 C-5.64212891 8.20876953 -5.64212891 8.20876953 -6.87109375 8.23046875 C-9 8 -9 8 -11 6 C-10.9375 3.5 -10.9375 3.5 -10 1 C-6.41025704 -1.19373181 -3.97935131 -1.13695752 0 0 Z " fill="#101010" transform="translate(217,316)"/>
        <path d="M0 0 C1 1 1 1 1.0625 3.5625 C1.041875 4.366875 1.02125 5.17125 1 6 C-4.41538462 9.07692308 -4.41538462 9.07692308 -7.375 8.6875 C-7.91125 8.460625 -8.4475 8.23375 -9 8 C-9.33 5.69 -9.66 3.38 -10 1 C-6.23355012 -0.82941851 -4.03077875 -1.23162684 0 0 Z " fill="#0D0D0D" transform="translate(136,41)"/>
        <path d="M0 0 C6.625 -0.25 6.625 -0.25 10 2 C10.25 4.5625 10.25 4.5625 10 7 C9 8 9 8 6.71484375 8.09765625 C5.34005859 8.08025391 5.34005859 8.08025391 3.9375 8.0625 C3.01839844 8.05347656 2.09929687 8.04445313 1.15234375 8.03515625 C0.44207031 8.02355469 -0.26820313 8.01195312 -1 8 C-0.67 5.36 -0.34 2.72 0 0 Z " fill="#080808" transform="translate(191,33)"/>
        <path d="M0 0 C0.33 2.64 0.66 5.28 1 8 C-5.0546875 8.9765625 -5.0546875 8.9765625 -7 9 C-7.66 8.34 -8.32 7.68 -9 7 C-8.9375 4.5 -8.9375 4.5 -8 2 C-5.11090151 0.40339294 -3.30941204 0 0 0 Z " fill="#0C0C0C" transform="translate(219,327)"/>
        <path d="M0 0 C0.33 1.65 0.66 3.3 1 5 C-1.62198774 7.15377564 -3.64404172 8.40072174 -7 9 C-8.76462683 5.91190305 -9 4.76687864 -9 1 C-5.57367167 -0.61798838 -3.61944899 -1.34053666 0 0 Z " fill="#0B0B0B" transform="translate(131,30)"/>
        <path d="M0 0 C5.41538462 -0.36923077 5.41538462 -0.36923077 8.375 1.5 C8.91125 1.995 9.4475 2.49 10 3 C9.125 6.875 9.125 6.875 8 8 C5.32941149 8.14115161 2.67567762 8.04247107 0 8 C0 5.36 0 2.72 0 0 Z " fill="#090909" transform="translate(192,21)"/>
        <path d="M0 0 C3.81684226 1.55500981 6.19195732 4.03595495 9 7 C5.37 7 1.74 7 -2 7 C-1.34 4.69 -0.68 2.38 0 0 Z " fill="#0D0D0D" transform="translate(319,225)"/>
        <path d="M0 0 C1.2065625 0.0309375 1.2065625 0.0309375 2.4375 0.0625 C3.0625 1.9375 3.0625 1.9375 3.4375 4.0625 C2.7775 4.7225 2.1175 5.3825 1.4375 6.0625 C-0.6875 5.6875 -0.6875 5.6875 -2.5625 5.0625 C-3.125 3.125 -3.125 3.125 -3.5625 1.0625 C-2.5625 0.0625 -2.5625 0.0625 0 0 Z " fill="#DEDEDE" transform="translate(117.5625,299.9375)"/>
        <path d="M0 0 C1.65 0 3.3 0 5 0 C5 1.65 5 3.3 5 5 C3.125 5.625 3.125 5.625 1 6 C0.34 5.34 -0.32 4.68 -1 4 C-0.625 1.875 -0.625 1.875 0 0 Z " fill="#DFDFDF" transform="translate(276,81)"/>
    </g>
</svg>