<svg aria-hidden="true" fill="none" height="100%" preserveaspectratio="xMidYMid meet" role="img" viewBox="0 0 132 38" width="100%" xmlns="http://www.w3.org/2000/svg">
<g clip-path="url(#clip0_4065_17437)">
<path d="M22.2198 37.7699C25.6623 37.7699 28.0487 36.1633 29.7023 34.0512V37.1273H34.4301V15.3243H29.7023V17.94C28.2798 16.1962 25.6172 14.6816 22.3588 14.6816C16.0695 14.6816 11.6631 19.4094 11.6631 26.2023C11.6631 32.9952 15.8854 37.7699 22.2198 37.7699ZM16.4829 26.2023C16.4829 22.2092 18.9163 18.996 21.8985 18.996H24.7904C27.6353 18.996 29.5632 21.4745 29.5632 24.3664V28.1772C29.5632 31.1612 27.4981 33.4556 24.7904 33.4556H21.8985C18.9145 33.4556 16.4829 30.2423 16.4829 26.2023Z" fill="currentcolor"></path>
<path d="M43.7923 37.1272H50.7693L58.6183 15.3242H53.9826L47.7402 32.6287H47.0055L40.7632 15.3242H35.9434L43.7923 37.1272Z" fill="currentcolor"></path>
<path d="M68.5138 37.7699C72.0483 37.7699 74.3427 36.3925 75.675 34.1432V37.1272H80.3576V15.3242H75.5378V28.2222C75.5378 31.2062 73.5178 33.2714 71.2685 33.2714H68.6528C66.5407 33.2714 64.9341 31.3885 64.9341 28.2222V15.3242H60.1143V29.049C60.1143 34.6957 63.2354 37.7699 68.5138 37.7699Z" fill="currentcolor"></path>
<path d="M91.626 37.7708C98.2366 37.7708 101.219 35.2923 101.219 30.7938C101.219 27.3044 99.2907 25.057 95.1135 24.5515L89.9724 23.9088C87.9993 23.6326 87.0805 22.6686 87.0805 21.2462C87.0805 19.8237 88.0444 18.7207 90.1095 18.7207H92.8643C95.2507 18.7207 96.0324 20.0511 96.2617 21.9339H100.897C100.713 16.9299 97.3177 14.6807 91.7162 14.6807C85.8403 14.6807 82.5819 17.0671 82.5819 21.4736C82.5819 24.824 84.5099 27.3945 88.8242 27.9L93.9184 28.5427C95.8915 28.817 96.7183 29.7829 96.7183 31.1584C96.7183 32.6278 95.7092 33.7289 93.5501 33.7289H90.5211C88.0425 33.7289 86.8493 32.4887 86.6201 30.5627H81.9844C82.1685 35.3356 85.2897 37.769 91.6241 37.769L91.626 37.7708Z" fill="currentcolor"></path>
<path clip-rule="evenodd" d="M10.318 37.1284H4.98145C2.23047 37.1284 0 34.8979 0 32.1469V10.4473H4.86495V15.3235H10.318V19.5458H4.86495V31.7692C4.86495 32.3198 5.31029 32.7651 5.86086 32.7651H10.3162V37.1265L10.318 37.1284Z" fill="currentcolor" fill-rule="evenodd"></path>
<path clip-rule="evenodd" d="M103.813 9.39845C103.813 4.33431 107.919 0.228516 112.983 0.228516H122.832C127.896 0.228516 132.002 4.33431 132.002 9.39845C132.002 14.4626 127.896 18.5684 122.832 18.5684H112.983C107.919 18.5684 103.813 14.4626 103.813 9.39845ZM118.136 9.39845C118.136 12.1926 115.868 14.4588 113.07 14.4588C110.272 14.4588 108.004 12.1926 108.004 9.39845C108.004 6.60425 110.272 4.33807 113.07 4.33807C115.868 4.33807 118.136 6.60425 118.136 9.39845ZM119.735 14.3066L128.343 9.39845L119.735 4.49028V14.3066Z" fill="#F230AA" fill-rule="evenodd"></path>
<path d="M113.07 14.4586C115.868 14.4586 118.136 12.1925 118.136 9.39826C118.136 6.60407 115.868 4.33789 113.07 4.33789C110.272 4.33789 108.004 6.60407 108.004 9.39826C108.004 12.1925 110.272 14.4586 113.07 14.4586Z" fill="#F5F3EF"></path>
<path d="M128.343 9.3984L119.735 14.3066V4.49023L128.343 9.3984Z" fill="#F5F3EF"></path>
</g>
<defs>
<clipPath id="clip0_4065_17437">
<rect fill="white" height="37.5422" transform="translate(0 0.228516)" width="132"></rect>
</clipPath>
</defs>
</svg>